<?xml version="1.0" encoding="UTF-8"?>
<svg version="1.1" xmlns="http://www.w3.org/2000/svg" width="512" height="512">
<path d="M0 0 C3.30225078 2.98352954 6.52367407 6.04733058 9.73046875 9.1328125 C10.30829102 9.68340332 10.88611328 10.23399414 11.48144531 10.80126953 C19.51536856 18.4863687 26.77210773 26.44434935 33.40820312 35.36621094 C34.7291294 37.13102308 36.07828712 38.87087736 37.43359375 40.609375 C45.29015035 50.82289858 51.6741465 61.77488211 57.73046875 73.1328125 C58.39393311 74.37345459 58.39393311 74.37345459 59.07080078 75.63916016 C89.3630879 133.25075131 93.65133077 203.35378522 74.46972656 265.12207031 C62.60075156 302.12061192 42.82614917 335.30253433 15.73046875 363.1328125 C15.16827637 363.71546875 14.60608398 364.298125 14.02685547 364.8984375 C6.65926935 372.51208432 -0.83083711 379.69516372 -9.26953125 386.1328125 C-9.81125977 386.55095215 -10.35298828 386.9690918 -10.91113281 387.39990234 C-55.27656686 421.50131982 -108.38911216 439.66265005 -164.33203125 439.4453125 C-165.32875854 439.44315735 -166.32548584 439.4410022 -167.35241699 439.43878174 C-181.83683705 439.38849063 -196.04156647 439.10337009 -210.26953125 436.1328125 C-211.75791504 435.82682129 -211.75791504 435.82682129 -213.27636719 435.51464844 C-258.83043587 425.88225534 -298.27738942 405.68168019 -333.26953125 375.1328125 C-333.77436035 374.69259766 -334.27918945 374.25238281 -334.79931641 373.79882812 C-340.05834263 369.18619156 -345.05832387 364.51624107 -349.5546875 359.15234375 C-350.73402828 357.76346179 -351.9531806 356.40772985 -353.203125 355.08203125 C-386.43002147 319.78226417 -405.20553002 273.33975353 -413.26953125 226.1328125 C-413.41503418 225.29476074 -413.56053711 224.45670898 -413.71044922 223.59326172 C-417.79214425 198.66402475 -416.55322829 170.91189417 -412.26953125 146.1328125 C-412.10855957 145.1929248 -411.94758789 144.25303711 -411.78173828 143.28466797 C-403.54036054 97.18520342 -381.91032931 54.99961992 -350.45703125 20.54296875 C-348.33686508 18.20699996 -346.27255815 15.82954375 -344.20703125 13.4453125 C-341.19883079 10.06623801 -338.08062445 7.02907049 -334.62109375 4.1171875 C-332.84094622 2.61500321 -331.09072595 1.0772603 -329.35546875 -0.4765625 C-295.95266663 -30.24118656 -254.09129008 -49.57832109 -210.26953125 -57.8671875 C-209.45484375 -58.03089844 -208.64015625 -58.19460937 -207.80078125 -58.36328125 C-134.99764111 -72.48055682 -55.10523147 -48.86846405 0 0 Z " fill="#0FB2EC" transform="translate(421.26953125,66.8671875)"/>
<path d="M0 0 C6.25208877 5.1681863 11.96237699 10.81386751 17.69287109 16.54760742 C18.75610945 17.60784887 19.81955095 18.66788663 20.88317871 19.72773743 C23.75293199 22.58870803 26.61948284 25.45286609 29.48516798 28.31791091 C31.27650599 30.10853602 33.06855501 31.89844635 34.86085892 33.68810463 C41.11500451 39.93302115 47.36658437 46.1804928 53.61572266 52.43041992 C59.44103265 58.2563325 65.27191759 64.07662409 71.10539949 69.89435309 C76.11884398 74.89474065 81.12844455 79.89895702 86.13504469 84.90619737 C89.12340315 87.89481103 92.11330099 90.88184421 95.10706711 93.86504173 C97.91699973 96.66532262 100.72213045 99.4703247 103.52359009 102.27908134 C104.55346203 103.31000225 105.58505311 104.33920897 106.61845779 105.36658859 C108.025828 106.76628127 109.42648187 108.1727176 110.82675171 109.57951355 C111.61316732 110.3653844 112.39958294 111.15125525 113.20982933 111.96094036 C119.97606011 119.66788603 116.36562121 139.00937421 115.78173828 148.57617188 C111.01796492 207.54984424 87.41054091 262.46676758 46 305 C45.43780762 305.58265625 44.87561523 306.1653125 44.29638672 306.765625 C36.9288006 314.37927182 29.43869414 321.56235122 21 328 C20.45827148 328.41813965 19.91654297 328.8362793 19.35839844 329.26708984 C-25.0123626 363.3726019 -78.11559854 381.51952767 -134.0625 381.3125 C-135.05690094 381.31100952 -136.05130188 381.30951904 -137.07583618 381.3079834 C-150.74483794 381.27112156 -164.18090749 381.04451119 -177.64599609 378.44873047 C-180.1283311 377.97553697 -182.6168811 377.58302635 -185.11328125 377.19140625 C-186.74302945 376.90315796 -188.37199026 376.61041029 -190 376.3125 C-191.06963989 376.14476074 -191.06963989 376.14476074 -192.16088867 375.97363281 C-196.28319786 375.11351481 -198.43436816 373.82662874 -201.09767151 370.54978943 C-205.53446609 365.29979402 -210.37897306 360.49611003 -215.24975586 355.65258789 C-216.26577773 354.63848928 -217.28156914 353.62415974 -218.29714966 352.60961914 C-220.46842645 350.4414817 -222.64124101 348.27490194 -224.81529045 346.10954475 C-228.25053091 342.68790276 -231.68188542 339.26238124 -235.11268616 335.83628845 C-242.3846527 328.57537877 -249.66087213 321.31873779 -256.9375 314.0625 C-264.81854385 306.20348666 -272.69883889 298.34373061 -280.57429796 290.47912019 C-283.98830737 287.07010359 -287.40474213 283.66354178 -290.82303131 280.25881684 C-292.9398082 278.14946717 -295.05454003 276.03807657 -297.16870499 273.92610931 C-298.15310302 272.94359228 -299.13836942 271.96194444 -300.12454033 270.98120689 C-301.46424492 269.6486557 -302.8006379 268.31277752 -304.13682556 266.97669983 C-304.88729125 266.22845475 -305.63775694 265.48020967 -306.41096401 264.7092905 C-308 263 -308 263 -308 262 C-283.91 262 -259.82 262 -235 262 C-234.34 256.06 -233.68 250.12 -233 244 C-232.22088254 238.01940609 -231.41459642 232.04436752 -230.58789062 226.0703125 C-229.51848781 218.21382332 -228.57691023 210.35123107 -227.6875 202.47265625 C-225.85052837 186.30750081 -223.74398785 170.17839787 -221.61108398 154.05004883 C-221.15496913 150.59758986 -220.7044973 147.14445998 -220.25854492 143.69067383 C-219.71203062 139.45806783 -219.15671469 135.22670891 -218.59475899 130.99612617 C-218.38395756 129.39806879 -218.17625424 127.79959952 -217.97172356 126.20072746 C-217.68881144 123.99448827 -217.39459229 121.79004916 -217.09741211 119.58569336 C-216.85117348 117.70810585 -216.85117348 117.70810585 -216.59996033 115.79258728 C-216.40197342 114.87103348 -216.20398651 113.94947968 -216 113 C-215.34 112.67 -214.68 112.34 -214 112 C-206.46224302 127.97552053 -198.97300793 143.97014553 -191.6875 160.0625 C-186.58846268 171.3241205 -181.44891709 182.56590194 -176.26287842 193.78775024 C-175.12992542 196.2393419 -173.99773719 198.69128544 -172.86572266 201.14331055 C-169.37826252 208.69585666 -165.88669002 216.24645018 -162.3848877 223.7923584 C-160.81599752 227.17549206 -159.25096699 230.56040231 -157.68670654 233.94567871 C-156.94680166 235.54455456 -156.20518814 237.142641 -155.46173096 238.73986816 C-154.42971687 240.95738109 -153.40370227 243.17758154 -152.37890625 245.3984375 C-152.07971786 246.03741974 -151.78052948 246.67640198 -151.47227478 247.33474731 C-149.2446604 252.18605987 -147.71573248 256.85280255 -146 262 C-135.11 261.505 -135.11 261.505 -124 261 C-115.78448915 243.65134569 -107.6243271 226.28286275 -99.7116394 208.79373169 C-94.15439393 196.51133522 -88.51883064 184.26646989 -82.85787964 172.03155518 C-78.77885977 163.21379791 -74.71195547 154.39112355 -70.69921875 145.54296875 C-70.35714386 144.78875641 -70.01506897 144.03454407 -69.66262817 143.25747681 C-68.05748315 139.71615 -66.45545596 136.17344727 -64.85742188 132.62890625 C-61.71636452 125.67608089 -58.48717489 118.78695254 -55 112 C-53.51667848 114.71594082 -52.67825531 117.0091658 -52.25390625 120.0703125 C-52.14054932 120.87033691 -52.02719238 121.67036133 -51.91040039 122.49462891 C-51.79559326 123.36265137 -51.68078613 124.23067383 -51.5625 125.125 C-51.43544678 126.04587402 -51.30839355 126.96674805 -51.17749023 127.91552734 C-50.05105159 136.23992973 -49.12474689 144.58560196 -48.19335938 152.93359375 C-47.18306306 161.81383929 -45.9013309 170.63716404 -44.55102539 179.47119141 C-43.11445714 188.97171427 -41.91206578 198.49328342 -40.7532959 208.03048706 C-39.45674028 218.67794433 -37.9829763 229.2895475 -36.30664062 239.88476562 C-35.1582003 247.30000376 -34.58001001 254.45986993 -34 262 C-9.91 262 14.18 262 39 262 C38.34 259.03 37.68 256.06 37 253 C36.58473503 250.36819716 36.20190474 247.73107291 35.8515625 245.08984375 C35.65082593 243.60196557 35.45005983 242.11409137 35.24926758 240.6262207 C35.14740143 239.86056793 35.04553528 239.09491516 34.94058228 238.30606079 C33.27520811 225.80681648 31.46360294 213.35480874 29.31347656 200.9284668 C28.12573505 193.98630133 27.21633705 187.05191346 26.4921875 180.046875 C26.14295452 176.91334313 25.64570887 173.82208123 25.11157227 170.71484375 C23.98818413 164.03250357 22.99826478 157.33289658 22.02827644 150.62696075 C21.71371705 148.45386976 21.39720967 146.28107004 21.08018494 144.1083374 C20.18027169 137.93949608 19.2824804 131.77035028 18.38891602 125.60058594 C17.83829375 121.79969219 17.28439693 117.99928674 16.72857475 114.19915009 C16.52050777 112.77235022 16.31360544 111.3453799 16.10801888 109.91822052 C14.92803014 101.72954385 13.58840038 93.59685703 12.03086662 85.47208118 C11.15581362 80.89378081 10.41465101 76.33770516 9.82421875 71.71484375 C9.63700332 70.28116334 9.44974566 68.84748844 9.26245117 67.41381836 C9.16886322 66.68452118 9.07527527 65.955224 8.97885132 65.2038269 C6.87947082 48.87343052 4.45916223 32.60251412 1.87963867 16.34155273 C1.75411621 15.54366333 1.62859375 14.74577393 1.49926758 13.92370605 C1.26463671 12.43352354 1.0274209 10.94374476 0.78710938 9.45446777 C0.28082177 6.23486237 0 3.27314096 0 0 Z " fill="#038FC7" transform="translate(391,125)"/>
<path d="M0 0 C24.09 0 48.18 0 73 0 C87.76470092 32.9366405 87.76470092 32.9366405 92.24737549 43.51480103 C93.77121349 47.10919884 95.30584254 50.69899301 96.83984375 54.2890625 C97.16682251 55.05456924 97.49380127 55.82007599 97.83068848 56.60877991 C102.21653695 66.86307745 106.67321516 77.08670391 111.125 87.3125 C111.55036041 88.28970001 111.97572083 89.26690002 112.41397095 90.27371216 C114.09195654 94.12856558 115.77000464 97.98339175 117.448349 101.83808899 C121.22488123 110.51302674 124.98994321 119.19291038 128.75 127.875 C129.02684631 128.51418365 129.30369263 129.15336731 129.58892822 129.81192017 C131.05969932 133.20776769 132.5300814 136.60378338 134 140 C138.1766818 131.77486128 142.20792496 123.53059192 145.875 115.0625 C146.33076416 114.01860107 146.78652832 112.97470215 147.25610352 111.89916992 C148.5537517 108.92518907 149.8479852 105.94974554 151.14129639 102.97387695 C152.68572088 99.42375342 154.23585353 95.87612162 155.78515625 92.328125 C164.59096969 72.15584241 173.36518766 51.96978492 182.13647461 31.7824707 C182.54138626 30.85074036 182.94629791 29.91901001 183.36347961 28.95904541 C184.10639338 27.24952315 184.84915976 25.53993683 185.59172058 23.83026123 C189.04674203 15.8804655 192.52561035 7.94146206 196 0 C220.09 0 244.18 0 269 0 C274.75221239 35.66371681 274.75221239 35.66371681 277.125 51.6875 C277.36571247 53.30406222 277.60659904 54.92059853 277.84765625 56.53710938 C278.32904815 59.76693186 278.80995 62.99682654 279.2902832 66.22680664 C279.40844391 67.02128204 279.52660461 67.81575745 279.64834595 68.63430786 C279.87753936 70.17616714 280.10653276 71.71805618 280.33529663 73.25997925 C281.88146941 83.67417825 283.47176989 94.08121177 285.08605194 104.48506355 C285.41126161 106.58134384 285.73611282 108.67767938 286.06085205 110.77403259 C286.28080154 112.19375624 286.5007519 113.61347975 286.72070312 115.03320312 C286.83067501 115.74310678 286.9406469 116.45301043 287.05395126 117.18442631 C287.6150057 120.80489955 288.17717837 124.4251935 288.74145508 128.04516602 C293.14256619 156.28988531 293.14256619 156.28988531 294.60253906 169.67211914 C295.07140688 173.59787911 295.76356941 177.44989408 296.51318359 181.33007812 C297.47528543 186.60668078 298.11026205 191.9337878 298.8125 197.25 C300.6024758 210.52924303 302.67769618 223.74755408 304.8515625 236.96875 C305.23505527 239.31238879 305.617877 241.65613749 306 244 C306.29342285 245.79050781 306.29342285 245.79050781 306.59277344 247.6171875 C306.77614258 248.76445312 306.95951172 249.91171875 307.1484375 251.09375 C307.394729 252.62032227 307.394729 252.62032227 307.64599609 254.17773438 C308 257 308 257 308 262 C283.91 262 259.82 262 235 262 C232.02651649 242.67235717 229.11708699 223.3648272 226.75054932 203.95394897 C225.6300319 194.78154168 224.39363402 185.63559117 223 176.5 C221.07380115 163.86489463 219.47878469 151.20129908 217.9296875 138.515625 C217.28259187 133.25331641 216.62753169 127.99224063 215.9453125 122.734375 C215.78820801 121.51459961 215.63110352 120.29482422 215.46923828 119.03808594 C215.08157041 115.96518932 215.08157041 115.96518932 214 113 C213.6095752 113.85601807 213.21915039 114.71203613 212.81689453 115.59399414 C204.91579851 132.91355611 196.98668698 150.21972542 189 167.5 C183.30560542 179.82079033 177.63544343 192.1521353 172 204.5 C166.4465157 216.66350312 160.87918285 228.8205839 155.28637695 240.96606445 C154.47407087 242.73084114 153.66254028 244.49597499 152.85180664 246.26147461 C151.72756969 248.70916563 150.60050612 251.15553459 149.47265625 253.6015625 C149.13492691 254.33827179 148.79719757 255.07498108 148.44923401 255.83401489 C146.11428548 260.88571452 146.11428548 260.88571452 145 262 C143.36527118 262.08700342 141.72685945 262.10701063 140.08984375 262.09765625 C139.10048828 262.09443359 138.11113281 262.09121094 137.09179688 262.08789062 C135.53041992 262.07532227 135.53041992 262.07532227 133.9375 262.0625 C132.89271484 262.05798828 131.84792969 262.05347656 130.77148438 262.04882812 C128.1809334 262.03699913 125.59049441 262.02051689 123 262 C108.94608456 231.57673506 94.9137582 201.14369852 80.98764038 170.66168213 C78.34948323 164.88745775 75.70983667 159.11391414 73.07000732 153.3404541 C72.33050263 151.72291676 71.59113127 150.10531845 70.85186768 148.4876709 C68.47500609 143.28675124 66.0958567 138.08688908 63.71362305 132.88842773 C62.94980397 131.22066158 62.18677541 129.55253314 61.42456055 127.8840332 C60.36975326 125.57537643 59.31218056 123.26800662 58.25390625 120.9609375 C57.93805069 120.26797577 57.62219513 119.57501404 57.29676819 118.86105347 C55.98986192 115.709865 55.98986192 115.709865 54 113 C52.48438474 124.28512683 50.97142184 135.57060601 49.46161938 146.85651207 C48.76007983 152.09998429 48.05770994 157.34334217 47.35327148 162.58642578 C44.49462336 183.8672963 41.66257586 205.13948861 39.28713989 226.48059082 C38.5657531 232.81014845 37.72315104 239.12386368 36.875 245.4375 C36.70613281 246.72591797 36.53726563 248.01433594 36.36328125 249.34179688 C36.19957031 250.56833984 36.03585938 251.79488281 35.8671875 253.05859375 C35.65231689 254.67205688 35.65231689 254.67205688 35.43310547 256.31811523 C35 259 35 259 34 262 C9.91 262 -14.18 262 -39 262 C-39 254.13151927 -39 254.13151927 -38.265625 249.98046875 C-38.02598022 248.59263184 -38.02598022 248.59263184 -37.78149414 247.17675781 C-37.60610107 246.19030273 -37.43070801 245.20384766 -37.25 244.1875 C-36.87761505 242.01975266 -36.50656438 239.85177577 -36.13671875 237.68359375 C-35.9464209 236.57226074 -35.75612305 235.46092773 -35.56005859 234.31591797 C-32.90383387 218.58930757 -30.67314113 202.7991115 -28.5 187 C-25.79908301 167.36386685 -22.82415825 147.7878719 -19.49975586 128.24707031 C-17.97126675 119.1164573 -16.73249278 109.9525647 -15.5 100.77807617 C-14.33382195 92.18491552 -12.97213623 83.64294705 -11.5 75.09765625 C-10.16643088 67.25251919 -9.0593281 59.38645439 -8 51.5 C-6.51625396 40.46034475 -4.81874069 29.47714522 -2.9296875 18.5 C-1.88908264 12.34381664 -0.94937098 6.17091135 0 0 Z " fill="#FEFEFE" transform="translate(122,125)"/>
<path d="M0 0 C3.63733907 3.50766566 6.85163921 7.18284156 9.9375 11.1875 C10.40349609 11.78626953 10.86949219 12.38503906 11.34960938 13.00195312 C12.363327 14.30530436 13.37547621 15.60987667 14.38623047 16.91552734 C16.65626537 19.84768437 18.93410162 22.77375238 21.21118164 25.70043945 C22.41003793 27.24159237 23.60843825 28.78310008 24.80639648 30.32495117 C28.35716266 34.89424064 31.92014205 39.45347417 35.5 44 C40.2936603 50.08809082 45.05206476 56.20318707 49.80419922 62.32373047 C52.94953481 66.37241264 56.10558797 70.41175203 59.28857422 74.4309082 C60.61298153 76.10976505 61.92393869 77.79850811 63.234375 79.48828125 C65.24996229 82.07879928 67.33730602 84.59629448 69.453125 87.10546875 C70.59438619 88.5072948 71.73502354 89.909629 72.875 91.3125 C73.43010254 91.94623535 73.98520508 92.5799707 74.55712891 93.23291016 C78.07251468 97.64691427 78.07251468 97.64691427 77.89819336 100.8996582 C77.13349997 103.38795566 76.10490856 105.64085406 75 108 C74.46901161 109.23571179 73.94268717 110.47343353 73.41992188 111.71264648 C71.59422752 116.01541375 69.705573 120.28905163 67.8125 124.5625 C67.15132519 126.06298915 66.49051481 127.56363894 65.83007812 129.06445312 C64.22424946 132.71150181 62.61349872 136.35633855 61 140 C58.46151775 136.89224288 56.89343894 133.78582577 55.3203125 130.1015625 C54.81048828 128.915625 54.30066406 127.7296875 53.77539062 126.5078125 C53.22521763 125.21355985 52.67508865 123.9192885 52.125 122.625 C51.54679375 121.27579734 50.96800759 119.92684307 50.38867188 118.578125 C49.18557511 115.77602265 47.98498084 112.97286793 46.78613281 110.16894531 C44.31226777 104.38811415 41.80817259 98.62044417 39.30407715 92.85266113 C37.94339406 89.71753327 36.58514164 86.5813525 35.2265625 83.4453125 C33.13888287 78.6272301 31.0502266 73.80957226 28.9609375 68.9921875 C26.5896885 63.52454383 24.22128897 58.05567095 21.85401917 52.58630371 C19.66751301 47.53655952 17.47447475 42.48967257 15.28027344 37.44326782 C13.51803978 33.38830152 11.75891714 29.33198978 10.00030518 25.27545166 C9.12704717 23.2629673 8.25250018 21.25104175 7.37664795 19.23968506 C6.1474831 16.41644065 4.92285285 13.59127001 3.69921875 10.765625 C3.32489212 9.90875092 2.95056549 9.05187683 2.56489563 8.16903687 C2.22596786 7.38396759 1.8870401 6.59889832 1.5378418 5.79003906 C1.2395195 5.10331116 0.9411972 4.41658325 0.63383484 3.70904541 C0 2 0 2 0 0 Z " fill="#0376A0" transform="translate(196,127)"/>
</svg>
